; NON-PLATED HOLES START AT T1
; THROUGH (PLATED) HOLES START AT T100
M48
INCH
T100C0.040000
T101C0.038000
T102C0.036000
T103C0.027559
T104C0.031250
T105C0.035000
%
T100
X028071Y002232
X024071Y002232
X027071Y002232
X026071Y002232
X025071Y002232
X029071Y002232
T101
X022071Y003232
X011571Y005232
X012571Y003232
X021071Y003232
X021071Y004232
X022071Y004232
X011571Y006232
X011571Y003232
X028071Y004232
X025071Y003232
X022571Y015232
X028071Y003232
X026071Y003232
X021571Y015232
T102
X013571Y016232
X013571Y007232
X013571Y011232
X013571Y013232
X013571Y005232
X013571Y009232
X019571Y004232
X013571Y004232
X019571Y003232
X019571Y006232
X019571Y014232
X013571Y010232
X013571Y012232
X013571Y015232
X019571Y008232
X013571Y006232
X019571Y015232
X013571Y003232
X019571Y013232
X019571Y011232
X019571Y007232
X019571Y016232
X019571Y005232
X019571Y017232
X019571Y009232
X013571Y008232
X019571Y010232
X013571Y017232
X019571Y012232
X013571Y014232
T103
X031571Y001732
X032358Y001732
T104
X004571Y017232
X003571Y017232
X002571Y017232
X005571Y017232
X006571Y017232
X007571Y017232
T105
X032561Y011717
X011561Y013217
X011561Y015217
X012561Y007217
X012561Y009217
X021581Y012247
X021581Y007247
X021581Y009247
X010561Y012217
X020581Y008247
X010561Y009217
X022581Y007247
X010561Y011217
X012561Y011217
X031561Y016217
X011561Y010217
X012561Y014217
X012561Y016217
X022581Y013247
X030561Y007217
X011561Y008217
X032561Y014717
X010561Y010217
X032561Y010217
X012561Y012217
X020581Y007247
X031561Y008717
X011561Y009217
X022581Y012247
X012561Y015217
X021581Y011247
X032561Y013217
X020581Y010247
X030561Y013217
X012561Y013217
X020581Y011247
X030561Y014717
X011561Y011217
X010561Y008217
X030561Y011717
X021581Y010247
X010561Y013217
X011561Y007217
X030561Y005717
X031561Y007217
X011561Y012217
X021581Y008247
X030561Y010217
X010561Y007217
X022581Y011247
X031561Y011717
X032561Y005717
X022581Y009247
X020581Y012247
X012561Y010217
X020581Y009247
X031561Y010217
X022581Y010247
X032561Y016217
X032561Y008717
X030561Y016217
X032561Y007217
X011561Y016217
X031561Y014717
X021581Y013247
X010561Y015217
X030561Y008717
X010561Y014217
X012561Y008217
X031561Y013217
X022581Y008247
X011561Y014217
X031561Y005717
X010561Y016217
X020581Y013247
T00
M30
