G04 MADE WITH FRITZING*
G04 WWW.FRITZING.ORG*
G04 DOUBLE SIDED*
G04 HOLES PLATED*
G04 CONTOUR ON CENTER OF CONTOUR VECTOR*
%ASAXBY*%
%FSLAX23Y23*%
%MOIN*%
%OFA0B0*%
%SFA1.0B1.0*%
%ADD10C,0.080000*%
%ADD11C,0.084000*%
%ADD12C,0.088000*%
%ADD13C,0.085000*%
%ADD14C,0.067000*%
%ADD15R,0.079972X0.080000*%
%ADD16R,0.085000X0.085000*%
%ADD17R,0.001000X0.001000*%
%LNMASK0*%
G90*
G70*
G54D10*
X1957Y323D03*
X1957Y423D03*
X1957Y523D03*
X1957Y623D03*
X1957Y723D03*
X1957Y823D03*
X1957Y923D03*
X1957Y1023D03*
X1957Y1123D03*
X1957Y1223D03*
X1957Y1323D03*
X1957Y1423D03*
X1957Y1523D03*
X1957Y1623D03*
X1957Y1723D03*
X1357Y323D03*
X1357Y423D03*
X1357Y523D03*
X1357Y623D03*
X1357Y723D03*
X1357Y823D03*
X1357Y923D03*
X1357Y1023D03*
X1357Y1123D03*
X1357Y1223D03*
X1357Y1323D03*
X1357Y1423D03*
X1357Y1523D03*
X1357Y1623D03*
X1357Y1723D03*
G54D11*
X2907Y223D03*
X2807Y223D03*
X2707Y223D03*
X2607Y223D03*
X2507Y223D03*
X2407Y223D03*
G54D12*
X2207Y423D03*
X2107Y423D03*
X2207Y323D03*
X2107Y323D03*
X1157Y523D03*
X1157Y623D03*
X2157Y1523D03*
X2257Y1523D03*
X1257Y323D03*
X1157Y323D03*
X2807Y323D03*
X2807Y423D03*
X2607Y323D03*
X2507Y323D03*
G54D13*
X2058Y725D03*
X2158Y725D03*
X2258Y725D03*
X2058Y1125D03*
X2158Y1125D03*
X2258Y1125D03*
X2058Y1325D03*
X2158Y1325D03*
X2258Y1325D03*
X2058Y1225D03*
X2158Y1225D03*
X2258Y1225D03*
X2058Y1025D03*
X2158Y1025D03*
X2258Y1025D03*
X2058Y825D03*
X2158Y825D03*
X2258Y825D03*
X2058Y925D03*
X2158Y925D03*
X2258Y925D03*
X1256Y822D03*
X1156Y822D03*
X1056Y822D03*
X1256Y722D03*
X1156Y722D03*
X1056Y722D03*
X3256Y1622D03*
X3156Y1622D03*
X3056Y1622D03*
X3256Y872D03*
X3156Y872D03*
X3056Y872D03*
X3256Y1022D03*
X3156Y1022D03*
X3056Y1022D03*
X3256Y1172D03*
X3156Y1172D03*
X3056Y1172D03*
X3256Y572D03*
X3156Y572D03*
X3056Y572D03*
X3256Y722D03*
X3156Y722D03*
X3056Y722D03*
X3256Y1472D03*
X3156Y1472D03*
X3056Y1472D03*
X3256Y1322D03*
X3156Y1322D03*
X3056Y1322D03*
X1256Y1222D03*
X1156Y1222D03*
X1056Y1222D03*
X1256Y1622D03*
X1156Y1622D03*
X1056Y1622D03*
X1256Y1022D03*
X1156Y1022D03*
X1056Y1022D03*
X1256Y922D03*
X1156Y922D03*
X1056Y922D03*
X1256Y1122D03*
X1156Y1122D03*
X1056Y1122D03*
X1256Y1322D03*
X1156Y1322D03*
X1056Y1322D03*
X1256Y1522D03*
X1156Y1522D03*
X1056Y1522D03*
X1256Y1422D03*
X1156Y1422D03*
X1056Y1422D03*
G54D14*
X3157Y173D03*
X3236Y173D03*
G54D15*
X1957Y323D03*
G54D16*
X2058Y725D03*
X2058Y1125D03*
X2058Y1325D03*
X2058Y1225D03*
X2058Y1025D03*
X2058Y825D03*
X2058Y925D03*
X1256Y822D03*
X1256Y722D03*
X3256Y1622D03*
X3256Y872D03*
X3256Y1022D03*
X3256Y1172D03*
X3256Y572D03*
X3256Y722D03*
X3256Y1472D03*
X3256Y1322D03*
X1256Y1222D03*
X1256Y1622D03*
X1256Y1022D03*
X1256Y922D03*
X1256Y1122D03*
X1256Y1322D03*
X1256Y1522D03*
X1256Y1422D03*
G54D17*
X249Y1761D02*
X264Y1761D01*
X349Y1761D02*
X364Y1761D01*
X449Y1761D02*
X464Y1761D01*
X549Y1761D02*
X564Y1761D01*
X649Y1761D02*
X664Y1761D01*
X749Y1761D02*
X764Y1761D01*
X245Y1760D02*
X268Y1760D01*
X345Y1760D02*
X368Y1760D01*
X445Y1760D02*
X468Y1760D01*
X545Y1760D02*
X568Y1760D01*
X645Y1760D02*
X668Y1760D01*
X745Y1760D02*
X768Y1760D01*
X243Y1759D02*
X271Y1759D01*
X343Y1759D02*
X370Y1759D01*
X443Y1759D02*
X470Y1759D01*
X543Y1759D02*
X570Y1759D01*
X642Y1759D02*
X670Y1759D01*
X742Y1759D02*
X770Y1759D01*
X240Y1758D02*
X273Y1758D01*
X340Y1758D02*
X373Y1758D01*
X440Y1758D02*
X473Y1758D01*
X540Y1758D02*
X573Y1758D01*
X640Y1758D02*
X673Y1758D01*
X740Y1758D02*
X773Y1758D01*
X239Y1757D02*
X275Y1757D01*
X338Y1757D02*
X375Y1757D01*
X438Y1757D02*
X475Y1757D01*
X538Y1757D02*
X575Y1757D01*
X638Y1757D02*
X674Y1757D01*
X738Y1757D02*
X774Y1757D01*
X237Y1756D02*
X276Y1756D01*
X337Y1756D02*
X376Y1756D01*
X437Y1756D02*
X476Y1756D01*
X537Y1756D02*
X576Y1756D01*
X637Y1756D02*
X676Y1756D01*
X737Y1756D02*
X776Y1756D01*
X235Y1755D02*
X278Y1755D01*
X335Y1755D02*
X378Y1755D01*
X435Y1755D02*
X478Y1755D01*
X535Y1755D02*
X578Y1755D01*
X635Y1755D02*
X678Y1755D01*
X735Y1755D02*
X778Y1755D01*
X234Y1754D02*
X279Y1754D01*
X334Y1754D02*
X379Y1754D01*
X434Y1754D02*
X479Y1754D01*
X534Y1754D02*
X579Y1754D01*
X634Y1754D02*
X679Y1754D01*
X734Y1754D02*
X779Y1754D01*
X233Y1753D02*
X280Y1753D01*
X333Y1753D02*
X380Y1753D01*
X433Y1753D02*
X480Y1753D01*
X533Y1753D02*
X580Y1753D01*
X633Y1753D02*
X680Y1753D01*
X733Y1753D02*
X780Y1753D01*
X232Y1752D02*
X282Y1752D01*
X332Y1752D02*
X381Y1752D01*
X432Y1752D02*
X481Y1752D01*
X532Y1752D02*
X581Y1752D01*
X631Y1752D02*
X681Y1752D01*
X731Y1752D02*
X781Y1752D01*
X230Y1751D02*
X283Y1751D01*
X330Y1751D02*
X383Y1751D01*
X430Y1751D02*
X483Y1751D01*
X530Y1751D02*
X583Y1751D01*
X630Y1751D02*
X683Y1751D01*
X730Y1751D02*
X783Y1751D01*
X230Y1750D02*
X284Y1750D01*
X329Y1750D02*
X384Y1750D01*
X429Y1750D02*
X484Y1750D01*
X529Y1750D02*
X584Y1750D01*
X629Y1750D02*
X684Y1750D01*
X729Y1750D02*
X783Y1750D01*
X229Y1749D02*
X284Y1749D01*
X329Y1749D02*
X384Y1749D01*
X429Y1749D02*
X484Y1749D01*
X529Y1749D02*
X584Y1749D01*
X629Y1749D02*
X684Y1749D01*
X728Y1749D02*
X784Y1749D01*
X228Y1748D02*
X285Y1748D01*
X328Y1748D02*
X385Y1748D01*
X428Y1748D02*
X485Y1748D01*
X528Y1748D02*
X585Y1748D01*
X628Y1748D02*
X685Y1748D01*
X728Y1748D02*
X785Y1748D01*
X227Y1747D02*
X286Y1747D01*
X327Y1747D02*
X386Y1747D01*
X427Y1747D02*
X486Y1747D01*
X527Y1747D02*
X586Y1747D01*
X627Y1747D02*
X686Y1747D01*
X727Y1747D02*
X786Y1747D01*
X226Y1746D02*
X287Y1746D01*
X326Y1746D02*
X387Y1746D01*
X426Y1746D02*
X487Y1746D01*
X526Y1746D02*
X587Y1746D01*
X626Y1746D02*
X687Y1746D01*
X726Y1746D02*
X787Y1746D01*
X226Y1745D02*
X288Y1745D01*
X326Y1745D02*
X388Y1745D01*
X426Y1745D02*
X488Y1745D01*
X525Y1745D02*
X587Y1745D01*
X625Y1745D02*
X687Y1745D01*
X725Y1745D02*
X787Y1745D01*
X225Y1744D02*
X288Y1744D01*
X325Y1744D02*
X388Y1744D01*
X425Y1744D02*
X488Y1744D01*
X525Y1744D02*
X588Y1744D01*
X625Y1744D02*
X688Y1744D01*
X725Y1744D02*
X788Y1744D01*
X224Y1743D02*
X289Y1743D01*
X324Y1743D02*
X389Y1743D01*
X424Y1743D02*
X489Y1743D01*
X524Y1743D02*
X589Y1743D01*
X624Y1743D02*
X689Y1743D01*
X724Y1743D02*
X789Y1743D01*
X224Y1742D02*
X289Y1742D01*
X324Y1742D02*
X389Y1742D01*
X424Y1742D02*
X489Y1742D01*
X524Y1742D02*
X589Y1742D01*
X624Y1742D02*
X689Y1742D01*
X724Y1742D02*
X789Y1742D01*
X223Y1741D02*
X290Y1741D01*
X323Y1741D02*
X390Y1741D01*
X423Y1741D02*
X490Y1741D01*
X523Y1741D02*
X590Y1741D01*
X623Y1741D02*
X690Y1741D01*
X723Y1741D02*
X790Y1741D01*
X223Y1740D02*
X290Y1740D01*
X323Y1740D02*
X390Y1740D01*
X423Y1740D02*
X490Y1740D01*
X523Y1740D02*
X590Y1740D01*
X623Y1740D02*
X690Y1740D01*
X723Y1740D02*
X790Y1740D01*
X222Y1739D02*
X291Y1739D01*
X322Y1739D02*
X391Y1739D01*
X422Y1739D02*
X491Y1739D01*
X522Y1739D02*
X591Y1739D01*
X622Y1739D02*
X691Y1739D01*
X722Y1739D02*
X791Y1739D01*
X222Y1738D02*
X291Y1738D01*
X322Y1738D02*
X391Y1738D01*
X422Y1738D02*
X491Y1738D01*
X522Y1738D02*
X591Y1738D01*
X622Y1738D02*
X691Y1738D01*
X722Y1738D02*
X791Y1738D01*
X221Y1737D02*
X292Y1737D01*
X321Y1737D02*
X392Y1737D01*
X421Y1737D02*
X492Y1737D01*
X521Y1737D02*
X592Y1737D01*
X621Y1737D02*
X692Y1737D01*
X721Y1737D02*
X792Y1737D01*
X221Y1736D02*
X292Y1736D01*
X321Y1736D02*
X392Y1736D01*
X421Y1736D02*
X492Y1736D01*
X521Y1736D02*
X592Y1736D01*
X621Y1736D02*
X692Y1736D01*
X721Y1736D02*
X792Y1736D01*
X221Y1735D02*
X292Y1735D01*
X321Y1735D02*
X392Y1735D01*
X421Y1735D02*
X492Y1735D01*
X521Y1735D02*
X592Y1735D01*
X621Y1735D02*
X692Y1735D01*
X721Y1735D02*
X792Y1735D01*
X221Y1734D02*
X293Y1734D01*
X320Y1734D02*
X393Y1734D01*
X420Y1734D02*
X493Y1734D01*
X520Y1734D02*
X593Y1734D01*
X620Y1734D02*
X692Y1734D01*
X720Y1734D02*
X792Y1734D01*
X220Y1733D02*
X293Y1733D01*
X320Y1733D02*
X393Y1733D01*
X420Y1733D02*
X493Y1733D01*
X520Y1733D02*
X593Y1733D01*
X620Y1733D02*
X693Y1733D01*
X720Y1733D02*
X793Y1733D01*
X220Y1732D02*
X293Y1732D01*
X320Y1732D02*
X393Y1732D01*
X420Y1732D02*
X493Y1732D01*
X520Y1732D02*
X593Y1732D01*
X620Y1732D02*
X693Y1732D01*
X720Y1732D02*
X793Y1732D01*
X220Y1731D02*
X293Y1731D01*
X320Y1731D02*
X393Y1731D01*
X420Y1731D02*
X493Y1731D01*
X520Y1731D02*
X593Y1731D01*
X620Y1731D02*
X693Y1731D01*
X720Y1731D02*
X793Y1731D01*
X220Y1730D02*
X293Y1730D01*
X320Y1730D02*
X393Y1730D01*
X420Y1730D02*
X493Y1730D01*
X520Y1730D02*
X593Y1730D01*
X620Y1730D02*
X693Y1730D01*
X720Y1730D02*
X793Y1730D01*
X220Y1729D02*
X294Y1729D01*
X319Y1729D02*
X394Y1729D01*
X419Y1729D02*
X494Y1729D01*
X519Y1729D02*
X594Y1729D01*
X619Y1729D02*
X693Y1729D01*
X719Y1729D02*
X793Y1729D01*
X219Y1728D02*
X294Y1728D01*
X319Y1728D02*
X394Y1728D01*
X419Y1728D02*
X494Y1728D01*
X519Y1728D02*
X594Y1728D01*
X619Y1728D02*
X694Y1728D01*
X719Y1728D02*
X794Y1728D01*
X219Y1727D02*
X294Y1727D01*
X319Y1727D02*
X394Y1727D01*
X419Y1727D02*
X494Y1727D01*
X519Y1727D02*
X594Y1727D01*
X619Y1727D02*
X694Y1727D01*
X719Y1727D02*
X794Y1727D01*
X219Y1726D02*
X294Y1726D01*
X319Y1726D02*
X394Y1726D01*
X419Y1726D02*
X494Y1726D01*
X519Y1726D02*
X594Y1726D01*
X619Y1726D02*
X694Y1726D01*
X719Y1726D02*
X794Y1726D01*
X219Y1725D02*
X294Y1725D01*
X319Y1725D02*
X394Y1725D01*
X419Y1725D02*
X494Y1725D01*
X519Y1725D02*
X594Y1725D01*
X619Y1725D02*
X694Y1725D01*
X719Y1725D02*
X794Y1725D01*
X219Y1724D02*
X294Y1724D01*
X319Y1724D02*
X394Y1724D01*
X419Y1724D02*
X494Y1724D01*
X519Y1724D02*
X594Y1724D01*
X619Y1724D02*
X694Y1724D01*
X719Y1724D02*
X794Y1724D01*
X219Y1723D02*
X294Y1723D01*
X319Y1723D02*
X394Y1723D01*
X419Y1723D02*
X494Y1723D01*
X519Y1723D02*
X594Y1723D01*
X619Y1723D02*
X694Y1723D01*
X719Y1723D02*
X794Y1723D01*
X219Y1722D02*
X294Y1722D01*
X319Y1722D02*
X394Y1722D01*
X419Y1722D02*
X494Y1722D01*
X519Y1722D02*
X594Y1722D01*
X619Y1722D02*
X694Y1722D01*
X719Y1722D02*
X794Y1722D01*
X219Y1721D02*
X294Y1721D01*
X319Y1721D02*
X394Y1721D01*
X419Y1721D02*
X494Y1721D01*
X519Y1721D02*
X594Y1721D01*
X619Y1721D02*
X694Y1721D01*
X719Y1721D02*
X794Y1721D01*
X219Y1720D02*
X294Y1720D01*
X319Y1720D02*
X394Y1720D01*
X419Y1720D02*
X494Y1720D01*
X519Y1720D02*
X594Y1720D01*
X619Y1720D02*
X694Y1720D01*
X719Y1720D02*
X794Y1720D01*
X219Y1719D02*
X294Y1719D01*
X319Y1719D02*
X394Y1719D01*
X419Y1719D02*
X494Y1719D01*
X519Y1719D02*
X594Y1719D01*
X619Y1719D02*
X694Y1719D01*
X719Y1719D02*
X793Y1719D01*
X220Y1718D02*
X293Y1718D01*
X320Y1718D02*
X393Y1718D01*
X420Y1718D02*
X493Y1718D01*
X520Y1718D02*
X593Y1718D01*
X620Y1718D02*
X693Y1718D01*
X720Y1718D02*
X793Y1718D01*
X220Y1717D02*
X293Y1717D01*
X320Y1717D02*
X393Y1717D01*
X420Y1717D02*
X493Y1717D01*
X520Y1717D02*
X593Y1717D01*
X620Y1717D02*
X693Y1717D01*
X720Y1717D02*
X793Y1717D01*
X220Y1716D02*
X293Y1716D01*
X320Y1716D02*
X393Y1716D01*
X420Y1716D02*
X493Y1716D01*
X520Y1716D02*
X593Y1716D01*
X620Y1716D02*
X693Y1716D01*
X720Y1716D02*
X793Y1716D01*
X220Y1715D02*
X293Y1715D01*
X320Y1715D02*
X393Y1715D01*
X420Y1715D02*
X493Y1715D01*
X520Y1715D02*
X593Y1715D01*
X620Y1715D02*
X693Y1715D01*
X720Y1715D02*
X793Y1715D01*
X220Y1714D02*
X293Y1714D01*
X320Y1714D02*
X393Y1714D01*
X420Y1714D02*
X493Y1714D01*
X520Y1714D02*
X593Y1714D01*
X620Y1714D02*
X693Y1714D01*
X720Y1714D02*
X792Y1714D01*
X221Y1713D02*
X292Y1713D01*
X321Y1713D02*
X392Y1713D01*
X421Y1713D02*
X492Y1713D01*
X521Y1713D02*
X592Y1713D01*
X621Y1713D02*
X692Y1713D01*
X721Y1713D02*
X792Y1713D01*
X221Y1712D02*
X292Y1712D01*
X321Y1712D02*
X392Y1712D01*
X421Y1712D02*
X492Y1712D01*
X521Y1712D02*
X592Y1712D01*
X621Y1712D02*
X692Y1712D01*
X721Y1712D02*
X792Y1712D01*
X221Y1711D02*
X292Y1711D01*
X321Y1711D02*
X392Y1711D01*
X421Y1711D02*
X492Y1711D01*
X521Y1711D02*
X592Y1711D01*
X621Y1711D02*
X692Y1711D01*
X721Y1711D02*
X792Y1711D01*
X222Y1710D02*
X291Y1710D01*
X322Y1710D02*
X391Y1710D01*
X422Y1710D02*
X491Y1710D01*
X522Y1710D02*
X591Y1710D01*
X622Y1710D02*
X691Y1710D01*
X722Y1710D02*
X791Y1710D01*
X222Y1709D02*
X291Y1709D01*
X322Y1709D02*
X391Y1709D01*
X422Y1709D02*
X491Y1709D01*
X522Y1709D02*
X591Y1709D01*
X622Y1709D02*
X691Y1709D01*
X722Y1709D02*
X791Y1709D01*
X223Y1708D02*
X290Y1708D01*
X323Y1708D02*
X390Y1708D01*
X423Y1708D02*
X490Y1708D01*
X523Y1708D02*
X590Y1708D01*
X623Y1708D02*
X690Y1708D01*
X722Y1708D02*
X790Y1708D01*
X223Y1707D02*
X290Y1707D01*
X323Y1707D02*
X390Y1707D01*
X423Y1707D02*
X490Y1707D01*
X523Y1707D02*
X590Y1707D01*
X623Y1707D02*
X690Y1707D01*
X723Y1707D02*
X790Y1707D01*
X224Y1706D02*
X289Y1706D01*
X324Y1706D02*
X389Y1706D01*
X424Y1706D02*
X489Y1706D01*
X524Y1706D02*
X589Y1706D01*
X624Y1706D02*
X689Y1706D01*
X723Y1706D02*
X789Y1706D01*
X224Y1705D02*
X289Y1705D01*
X324Y1705D02*
X389Y1705D01*
X424Y1705D02*
X489Y1705D01*
X524Y1705D02*
X589Y1705D01*
X624Y1705D02*
X689Y1705D01*
X724Y1705D02*
X789Y1705D01*
X225Y1704D02*
X288Y1704D01*
X325Y1704D02*
X388Y1704D01*
X425Y1704D02*
X488Y1704D01*
X525Y1704D02*
X588Y1704D01*
X625Y1704D02*
X688Y1704D01*
X725Y1704D02*
X788Y1704D01*
X225Y1703D02*
X288Y1703D01*
X325Y1703D02*
X388Y1703D01*
X425Y1703D02*
X488Y1703D01*
X525Y1703D02*
X588Y1703D01*
X625Y1703D02*
X688Y1703D01*
X725Y1703D02*
X788Y1703D01*
X226Y1702D02*
X287Y1702D01*
X326Y1702D02*
X387Y1702D01*
X426Y1702D02*
X487Y1702D01*
X526Y1702D02*
X587Y1702D01*
X626Y1702D02*
X687Y1702D01*
X726Y1702D02*
X787Y1702D01*
X227Y1701D02*
X286Y1701D01*
X327Y1701D02*
X386Y1701D01*
X427Y1701D02*
X486Y1701D01*
X527Y1701D02*
X586Y1701D01*
X627Y1701D02*
X686Y1701D01*
X727Y1701D02*
X786Y1701D01*
X228Y1700D02*
X285Y1700D01*
X328Y1700D02*
X385Y1700D01*
X428Y1700D02*
X485Y1700D01*
X528Y1700D02*
X585Y1700D01*
X628Y1700D02*
X685Y1700D01*
X727Y1700D02*
X785Y1700D01*
X228Y1699D02*
X285Y1699D01*
X328Y1699D02*
X385Y1699D01*
X428Y1699D02*
X485Y1699D01*
X528Y1699D02*
X585Y1699D01*
X628Y1699D02*
X685Y1699D01*
X728Y1699D02*
X785Y1699D01*
X229Y1698D02*
X284Y1698D01*
X329Y1698D02*
X384Y1698D01*
X429Y1698D02*
X484Y1698D01*
X529Y1698D02*
X584Y1698D01*
X629Y1698D02*
X684Y1698D01*
X729Y1698D02*
X784Y1698D01*
X230Y1697D02*
X283Y1697D01*
X330Y1697D02*
X383Y1697D01*
X430Y1697D02*
X483Y1697D01*
X530Y1697D02*
X583Y1697D01*
X630Y1697D02*
X683Y1697D01*
X730Y1697D02*
X783Y1697D01*
X231Y1696D02*
X282Y1696D01*
X331Y1696D02*
X382Y1696D01*
X431Y1696D02*
X482Y1696D01*
X531Y1696D02*
X582Y1696D01*
X631Y1696D02*
X682Y1696D01*
X731Y1696D02*
X782Y1696D01*
X233Y1695D02*
X281Y1695D01*
X332Y1695D02*
X381Y1695D01*
X432Y1695D02*
X481Y1695D01*
X532Y1695D02*
X581Y1695D01*
X632Y1695D02*
X680Y1695D01*
X732Y1695D02*
X780Y1695D01*
X234Y1694D02*
X279Y1694D01*
X334Y1694D02*
X379Y1694D01*
X434Y1694D02*
X479Y1694D01*
X534Y1694D02*
X579Y1694D01*
X634Y1694D02*
X679Y1694D01*
X734Y1694D02*
X779Y1694D01*
X235Y1693D02*
X278Y1693D01*
X335Y1693D02*
X378Y1693D01*
X435Y1693D02*
X478Y1693D01*
X535Y1693D02*
X578Y1693D01*
X635Y1693D02*
X678Y1693D01*
X735Y1693D02*
X778Y1693D01*
X237Y1692D02*
X276Y1692D01*
X337Y1692D02*
X376Y1692D01*
X437Y1692D02*
X476Y1692D01*
X537Y1692D02*
X576Y1692D01*
X637Y1692D02*
X676Y1692D01*
X737Y1692D02*
X776Y1692D01*
X238Y1691D02*
X275Y1691D01*
X338Y1691D02*
X375Y1691D01*
X438Y1691D02*
X475Y1691D01*
X538Y1691D02*
X575Y1691D01*
X638Y1691D02*
X675Y1691D01*
X738Y1691D02*
X775Y1691D01*
X240Y1690D02*
X273Y1690D01*
X340Y1690D02*
X373Y1690D01*
X440Y1690D02*
X473Y1690D01*
X540Y1690D02*
X573Y1690D01*
X640Y1690D02*
X673Y1690D01*
X740Y1690D02*
X773Y1690D01*
X242Y1689D02*
X271Y1689D01*
X342Y1689D02*
X371Y1689D01*
X442Y1689D02*
X471Y1689D01*
X542Y1689D02*
X571Y1689D01*
X642Y1689D02*
X671Y1689D01*
X742Y1689D02*
X771Y1689D01*
X245Y1688D02*
X268Y1688D01*
X345Y1688D02*
X368Y1688D01*
X445Y1688D02*
X468Y1688D01*
X545Y1688D02*
X568Y1688D01*
X645Y1688D02*
X668Y1688D01*
X745Y1688D02*
X768Y1688D01*
X249Y1687D02*
X265Y1687D01*
X349Y1687D02*
X364Y1687D01*
X449Y1687D02*
X464Y1687D01*
X549Y1687D02*
X564Y1687D01*
X649Y1687D02*
X664Y1687D01*
X748Y1687D02*
X764Y1687D01*
X256Y1686D02*
X257Y1686D01*
X356Y1686D02*
X357Y1686D01*
X456Y1686D02*
X457Y1686D01*
X556Y1686D02*
X557Y1686D01*
X656Y1686D02*
X657Y1686D01*
X756Y1686D02*
X757Y1686D01*
D02*
G04 End of Mask0*
M02*